#tb 0: 1/25
#media_type 0: video
#codec_id 0: rawvideo
#dimensions 0: 176x288
#sar 0: 0/1
0,          0,          0,        1,   152064, 0x91aac29b
0,          1,          1,        1,   152064, 0xf6fe5734
0,          2,          2,        1,   152064, 0xd9e587a8
0,          3,          3,        1,   152064, 0x43e482c8
0,          4,          4,        1,   152064, 0xbb1cbfca
